<?xml version="1.0" encoding="UTF-8"?><svg id="b" xmlns="http://www.w3.org/2000/svg" width="371.88" height="487.14" viewBox="0 0 371.88 487.14"><path d="M282.79,488.08c-.15-.12-15.01-11.96-22.81-13.91-4.3-1.08-29.15-3.04-53.17-4.93-20.47-1.62-39.81-3.14-45.78-4.06l-6.99-1c-.11,0-14.98-1-17.93-1-2.06,0-4.44-1.66-6.18-2.88-.7-.49-1.58-1.1-1.83-1.12-1.23,0-40.31-5.09-56.19-12.04-15.23-6.66-37.92-26.16-39.98-27.95-1.86.04-15.14-.25-28.2-15.18l-.08-.09-.03-.12s-.26-1.08.6-1.97c1.22-1.28,3.96-1.54,8.17-.79-.48-1.71-1.32-5.51.14-7.16.61-.69,1.51-.92,2.68-.69.54.11,1.07.19,1.62.27,3.72.55,8.34,1.22,20.51,10.77,1.54.46,22.42,6.64,33.98,6l-7.66-15.33c-.77-1.55-10.9-31.76-3.87-37.61.93-.77,2.03-.91,3.2-.4,6.33,2.76,14.41,24.97,14.62,28.76v.22s-.14.16-.14.16c-.49,1,3.96,7.65,7.22,12.51,2.59,3.87,5.27,7.87,6.79,10.76.71.34,3.89,1.83,5.56,1.88.91-.97,1.01-10.45.58-19.26-1.07-.91-6.55-5.82-6.79-10.75-.09-1.84.56-3.47,1.93-4.85.08-.08,1.97-1.96,3.95-3,.29-.72,1.45-3.16,4.18-4.1.1-.06.24-.11.45-.09,1.22.05,3.55,2.06,6.93,5.98,1.73-.43,9.76-1.28,30.97,11.08l75.87,1c.65-.12,18.58-2.65,56.33,31.13l20.96,14.97c8.23,5.49,25.02,15.68,29.63,14.91,7.47,0,39.6-9.65,45.99-25.69,6.25-15.69,6.39-20.85-29.67-46.41-13.19-9.35-20.42-23.5-21.49-42.06-.86-14.9,2.47-28.4,4.07-34.89.38-1.55.74-3.02.72-3.3,0,0,.01.1.11.21l.71-.71c.33.33.24.76-.57,4.04-1.59,6.44-4.89,19.85-4.04,34.6,1.05,18.24,8.14,32.14,21.07,41.31,36.56,25.92,36.36,31.66,30.02,47.59-6.54,16.43-39.31,26.31-46.83,26.31-6.02,1.02-29.29-14.43-30.28-15.08l-21.01-15.01c-19.54-17.48-33.62-24.94-42-28.14-9.07-3.46-13.59-2.78-13.63-2.78l-76.22-1-.11-.07c-23.32-13.6-30.49-11-30.56-10.97l-.33.13-.24-.27c-4.67-5.45-6.15-5.85-6.4-5.87l-.07.02c-2.72.91-3.67,3.66-3.68,3.69l-.07.19-.18.09c-1.9.95-3.85,2.89-3.87,2.91-1.16,1.16-1.71,2.54-1.64,4.09.24,4.91,6.54,10.12,6.6,10.17l.17.14v.22c.16,3.07.84,18.45-.86,20.24-.23.24-.47.29-.63.29-2.09,0-6.06-1.97-6.22-2.05l-.14-.07-.08-.14c-1.49-2.85-4.19-6.9-6.81-10.81-5.62-8.39-7.98-12.18-7.26-13.56-.42-4.33-8.32-25.25-14.01-27.73-.83-.36-1.52-.28-2.16.25-6.12,5.1,2.9,33.93,4.13,36.39l8.33,16.66-.74.06c-11.96,1-34.25-5.73-35.19-6.02l-.16-.09c-12.01-9.44-16.51-10.1-20.11-10.63-.57-.08-1.12-.17-1.67-.28-.8-.16-1.37-.04-1.73.37-1.2,1.36-.19,5.5.3,6.98l.27.82-.84-.17c-5.62-1.12-7.46-.27-8.05.33-.36.37-.39.77-.38.96,13.65,15.52,27.35,14.73,27.49,14.72l.21-.02.16.14c.24.21,24.13,21.03,39.87,27.92,15.74,6.89,54.43,11.93,55.8,11.96.5,0,1.13.42,2.39,1.31,1.63,1.14,3.86,2.69,5.61,2.69,2.98,0,17.42.96,18.03,1l7.04,1c5.94.91,25.26,2.44,45.71,4.05,24.07,1.9,48.96,3.86,53.34,4.96,8.01,2,22.58,13.6,23.19,14.09l-.62.78Z"/><path d="M31.92,419.15c-15.04-6.01-19.12-16.84-19.28-17.29l.94-.34c.04.11,4.12,10.87,18.72,16.71l-.37.93Z"/><path d="M127.86,459.13c-1.54-.85-37.48-20.76-45.9-29.85-1.75.64-9.85,3.03-16.24-4.26-6.86-7.84-28.64-19.77-28.86-19.89l.48-.88c.9.49,22.16,12.13,29.14,20.11,6.67,7.62,15.07,4.03,15.42,3.87l.33-.15.24.27c7.85,8.83,45.49,29.68,45.87,29.89l-.48.88Z"/><path d="M82.1,429.19c-.94,0-2.65-.96-6.58-9.29-2.11-4.46-3.87-8.99-3.89-9.03l.93-.36c3.38,8.69,7.87,17.68,9.53,17.68v1Z"/><path d="M156.38,464.64c-2.29-1.13-56.02-27.87-57.53-42.11-2.04-13.58-1.33-14.05-1.03-14.25l.55.83c.09-.06.12-.13.12-.13-.31.76.45,7.42,1.35,13.42,1.45,13.72,56.43,41.07,56.98,41.34l-.44.9Z"/><path d="M97.61,391.74c-1.9-18.02-1.19-18.36-.81-18.54.22-.1.48-.06.67.13l-.71.71.35-.35.02.45c.18-.04.26-.16.28-.21-.34.89.36,9.78,1.2,17.7l-.99.1Z"/><path d="M152.2,435.08c-6.89,0-15.95-3.25-16.44-3.42-19.14-9.48-23.89-17.39-24.09-17.72l-.08-.14.02-.16c0-.08.8-8.25-1.98-16.79-.88-2.71-1.21-5-1.02-7.2.95-11.38-.85-13.6-.87-13.62l.72-.69c.22.22,2.14,2.51,1.14,14.4-.17,2.06.14,4.22.98,6.8,2.62,8.05,2.14,15.78,2.04,17.03.7,1.05,6.06,8.52,23.53,17.18.1.03,14.99,5.37,20.73,2.5l.45.89c-1.36.68-3.16.95-5.13.95Z"/><path d="M117.15,418.61l-.54-.84c5.89-3.79,14.52-6.71,25.65-8.69,11.08-1.97,20.72-2.24,20.82-2.25l.03,1c-.1,0-9.67.28-20.67,2.23-11,1.95-19.5,4.83-25.28,8.54Z"/><path d="M142.1,410.01c-25.77-14.3-30.11-10.99-30.15-10.95l-.71-.7c.42-.45,4.84-3.94,31.35,10.78l-.49.87Z"/><path d="M176.33,423.13l-.46-.89c.23-.12,23.45-12.01,44.43-3.02l-.39.92c-20.53-8.8-43.34,2.87-43.57,2.98Z"/><path d="M300.57,114.25c-4.2,0-12.06-8.29-13.65-10.02-1.63.26-9.74,1.07-20.37-6.59-.16,1.73-.78,5.33-3.28,6.48-2.1.97-4.96-.05-8.49-3.04-12.77-10.81-40.54-18.82-40.81-18.9l-.11-.05c-.12-.07-11.97-6.8-26.56-.97-3.08,1.23-7.63,1.73-12.91,1.73-20.17,0-51.18-7.19-53.34-7.69-2.4-.06-43.32-1.17-48.36-9.23l.85-.53c4.8,7.68,47.16,8.76,47.59,8.77h.1c.51.13,51.02,11.91,65.7,6.04,14.52-5.81,26.45.48,27.38,1,1.43.41,28.48,8.38,41.13,19.08,3.21,2.71,5.71,3.69,7.42,2.9,2.69-1.24,2.75-6.47,2.75-6.52v-.99s.8.6.8.6c11.65,8.74,20.5,6.93,20.59,6.91l.28-.06.2.21c2.73,3,10.46,10.6,13.51,9.85,2.89-.72,2.16-7.04,1.63-9.41l-.28-1.24,1.05.72c4.79,3.28,9.87,3.09,11.27,2.96.59-6.77-7.86-18.13-7.95-18.25l-.13-.17.04-.21c.96-5.74-10.8-23.46-10.92-23.64l-.07-.1v-.12c-.66-5.14-4.34-9.07-7.6-12.54-1.7-1.81-3.31-3.53-4.35-5.26-2.9-4.83-20.64-14.72-20.81-14.82l-1.3-.72,1.47-.21c7.04-1.01,23.33,4.42,24.02,4.65.34.18,25.5,14.58,38.39,26.48,6.88,6.35,11.38,7.51,13.97,7.35,2.27-.13,3.27-1.26,3.31-1.31.59-.7.81-1.55.69-2.59-.78-6.43-14.46-16.58-14.6-16.68-.13-.11-11.18-9.16-25.03-21.02-13.66-11.71-22.59-11.88-22.68-11.88l-21.07-3-45.04-10.01c-6.02-.37-16.2-.48-17.54.87-2.02,2.02-55.57,9.63-66.28,11.14-.62.07-60.96,7.04-67.78,11.91-7.02,5.02-30.24,7.97-31.23,8.09l-.12-.99c.24-.03,23.96-3.04,30.77-7.91,7.02-5.02,65.74-11.8,68.23-12.09,25.41-3.57,63.9-9.42,65.71-10.87,2.09-2.09,16.71-1.24,18.38-1.14l45.08,10.01,20.96,2.99c.31,0,9.28.14,23.25,12.12,13.83,11.86,24.88,20.9,24.99,20.99.56.41,14.15,10.5,14.98,17.35.16,1.31-.15,2.44-.91,3.36-.05.06-1.27,1.49-3.96,1.66-2.77.17-7.59-.99-14.76-7.62-12.81-11.82-37.87-26.16-38.12-26.31-.07-.02-14.36-4.75-21.85-4.68,4.38,2.51,17.18,10.09,19.74,14.36.99,1.64,2.56,3.32,4.22,5.09,3.33,3.56,7.11,7.58,7.83,12.98,1.04,1.57,11.75,17.91,11.04,24.05,1.13,1.54,8.94,12.45,7.97,19.2l-.05.36-.36.06c-.24.04-5.77.89-11.38-2.45.41,2.57.96,8.56-2.58,9.44-.21.05-.42.08-.65.08Z"/><path d="M46.76,211.05c-2.09-1.97-51.14-48.5-46.15-75.46,4.99-26.92,45.84-49.13,46.25-49.35,11.54-5.29,28.94-14.38,29.68-17.78l.98.21c-1.09,4.98-27.24,17.1-30.21,18.46-.38.21-40.82,22.18-45.72,48.64-2.02,10.89,5.25,27.22,21.02,47.22,11.96,15.17,24.71,27.21,24.83,27.33l-.69.73Z"/><path d="M265.78,97.07c-.33-.28-32.96-27.88-41.68-27.88l-.14-.02-16.93-4.98h-29.29c-1.87.68-33.46,11.96-56.65,11l.04-1c23.66.99,56.03-10.85,56.35-10.97l.17-.03,29.59.02,16.93,4.98c9.18.14,40.9,26.97,42.25,28.12l-.65.76Z"/><path d="M290.17,104.44c-1.5,0-2.86-.21-3.15-.26l.16-.99c2.18.36,5.86.48,6.47-.73,0,0,.13-.34-.54-1.7-2.17-4.38-10.03-13.82-13.14-14.59l-.13-.03-.1-.1-25.95-25.95c-13.12-7.59-38.85-21.9-42.69-21.9v-1c5.08,0,41.69,21.17,43.25,22.07l.1.08,25.91,25.91c3.63,1.11,11.72,10.88,13.8,15.4.5,1.08.62,1.8.38,2.27-.62,1.23-2.59,1.53-4.38,1.53Z"/><path d="M303.16,104.42c-3.95-7.43-14.72-27.06-17.14-28.7-3.12-2.11-6.66-15.38-7.06-16.88,0,0-2.57-5.99-21.36-14.01-19.17-8.18-39.58-22.59-39.79-22.74l.58-.82c.2.14,20.54,14.5,39.6,22.64,19.31,8.24,21.82,14.37,21.92,14.62,1.06,4.04,4.29,14.75,6.67,16.36,3.12,2.11,16.88,27.96,17.46,29.05l-.88.47Z"/><path d="M262.91,31.15c-1.52-.62-37.23-15.16-40.27-22.27l.92-.39c2.88,6.73,39.36,21.58,39.73,21.73l-.38.93Z"/><path d="M57.39,160.27h29.52s-.29,1.23-.29,1.23h-28.15s-4.83,22.68-4.83,22.68h26.43s-.29,1.23-.29,1.23h-26.43s-5.48,25.55-5.48,25.55h-1.3l10.81-50.69Z"/><path d="M96.35,160.28h1.3l-10.52,49.47h27.65s-.5,1.23-.5,1.23h-28.73s10.81-50.7,10.81-50.7Z"/><path d="M135.01,160.29l-10.81,50.69h-1.3l10.81-50.69h1.3Z"/><path d="M159.42,161.52h-17.43s.29-1.23.29-1.23h36.15s-.29,1.23-.29,1.23h-17.43s-10.52,49.46-10.52,49.46h-1.3l10.52-49.47Z"/><path d="M199.66,161.53h-17.43s.29-1.23.29-1.23h36.15s-.29,1.23-.29,1.23h-17.43s-10.52,49.46-10.52,49.46h-1.3l10.52-49.47Z"/><path d="M228.17,160.31l-10.81,50.69h-1.3l10.81-50.69h1.3Z"/><path d="M270.21,211.02h-1.22c.29-1.58.94-4.68,2.31-11.16-4.54,9.29-11.38,11.88-19.66,11.88-11.38,0-17.64-8.21-17.64-19.73,0-16.27,9.15-32.4,27.08-32.4,8.79,0,16.42,4.11,17.28,14.33h-1.3c-.86-8.71-7.13-13.11-16.2-13.11-16.49,0-25.49,15.19-25.5,31.1,0,10.73,5.76,18.58,16.63,18.58,12.53,0,18.58-7.7,21.17-19.58l.87-4.03h-17.71s.29-1.23.29-1.23h19.01s-5.41,25.35-5.41,25.35Z"/><path d="M316.37,184.74h-26.64s-5.26,25.05-5.26,25.05h29.96s-.58,1.23-.58,1.23h-30.96s10.81-50.7,10.81-50.7h29.31s-.29,1.23-.29,1.23h-28.01s-4.69,21.95-4.69,21.95h26.64s-.29,1.23-.29,1.23Z"/><path d="M45.93,246.67h1.37l-4.97,23.18h32.47s4.97-23.18,4.97-23.18h1.3l-10.81,50.69h-1.3s5.55-26.28,5.55-26.28h-32.47s-5.55,26.27-5.55,26.27h-1.37s10.81-50.69,10.81-50.69Z"/><path d="M149.97,246.7l-.29,1.22h-26.86s-4.69,21.96-4.69,21.96h26.14s-.29,1.23-.29,1.23h-26.14s-5.26,25.05-5.26,25.05h29.16s-.5,1.23-.5,1.23h-30.24s4.47-21.25,4.47-21.25h-18.43s-18.44,21.23-18.44,21.23h-1.66s44.15-50.68,44.15-50.68h28.87ZM115.76,274.91l5.77-26.78h-.07l-23.34,26.78h17.64Z"/><path d="M150.6,297.39l10.81-50.69h1.87c5.83,12.89,20.73,45.66,22.17,49.19l.14.07c.07-1.37,3.24-15.84,4.97-24.05l5.41-25.2h1.37l-10.81,50.69h-1.8c-5.54-12.46-20.51-45.44-22.31-49.47l-.07-.22c-.94,5.18-2.88,14.26-4.83,23.54l-5.55,26.14h-1.37Z"/><path d="M211.88,246.71h13.39c13.18,0,20.45,9.08,20.37,21.11-.08,17.71-11.53,29.59-29.03,29.59h-15.55s10.81-50.69,10.81-50.69ZM202.73,296.18h14.04c15.99,0,27.51-10.86,27.51-28.22,0-11.95-6.84-20.02-19.22-20.02h-12.17s-10.16,48.24-10.16,48.24Z"/><path d="M285.03,271.14h-26.64s-5.26,25.05-5.26,25.05h29.96s-.58,1.23-.58,1.23h-30.96s10.81-50.7,10.81-50.7h29.31s-.29,1.23-.29,1.23h-28.01s-4.69,21.95-4.69,21.95h26.64s-.29,1.23-.29,1.23Z"/><path d="M298.64,272.08l-5.33,25.35h-1.37l10.81-50.69h15.41c8.35,0,13.1,4.4,13.1,11.31,0,8.07-5.33,12.82-14.26,13.46,4.68.94,9.86,4.18,7.56,14.4-1.8,8.14-1.87,10.15-1.95,11.52h-1.3c-.07-2.23.65-5.47,2.02-11.67,1.88-8.86-1.22-13.68-11.88-13.68h-12.82ZM298.92,270.85h11.88c10.22,0,19.08-2.22,19.08-12.74,0-6.34-4.17-10.15-11.88-10.16h-14.19s-4.9,22.89-4.9,22.89Z"/></svg>