<svg width="57" height="56" viewBox="0 0 57 56" fill="none" xmlns="http://www.w3.org/2000/svg">
<path d="M0.5 28C0.5 12.8122 12.8122 0.5 28 0.5H29C44.1878 0.5 56.5 12.8122 56.5 28C56.5 43.1878 44.1878 55.5 29 55.5H28C12.8122 55.5 0.5 43.1878 0.5 28Z" fill="#F5F5F5"/>
<path d="M0.5 28C0.5 12.8122 12.8122 0.5 28 0.5H29C44.1878 0.5 56.5 12.8122 56.5 28C56.5 43.1878 44.1878 55.5 29 55.5H28C12.8122 55.5 0.5 43.1878 0.5 28Z" stroke="black" stroke-linecap="round"/>
<path d="M33.5 19.6667H31C29.895 19.6667 28.8352 20.1057 28.0538 20.8871C27.2724 21.6685 26.8334 22.7283 26.8334 23.8334V26.3334H24.3334V29.6667H26.8334V36.3334H30.1667V29.6667H32.6667L33.5 26.3334H30.1667V23.8334C30.1667 23.6124 30.2545 23.4004 30.4108 23.2442C30.5671 23.0879 30.779 23.0001 31 23.0001H33.5V19.6667Z" stroke="#1E1E1E" stroke-width="2" stroke-linecap="round" stroke-linejoin="round"/>
</svg>
