<svg width="560" height="519" viewBox="0 0 560 519" fill="none" xmlns="http://www.w3.org/2000/svg">
<g clip-path="url(#clip0_196_65)">
<path d="M238.352 343.091C239.486 343.091 240.406 342.05 240.406 340.767C240.406 339.483 239.486 338.442 238.352 338.442C237.217 338.442 236.298 339.483 236.298 340.767C236.298 342.05 237.217 343.091 238.352 343.091Z" fill="#231F20" stroke="#231F20" stroke-miterlimit="10"/>
<path d="M0.293457 416.026L126.626 310.064L168.765 307.6L92.3523 518.402H0.293457V416.026Z" stroke="#231F20" stroke-miterlimit="10"/>
<path d="M41.9683 381.073L145.325 372.26" stroke="#231F20" stroke-miterlimit="10"/>
<path d="M111.772 464.827L0.293457 479.803" stroke="#231F20" stroke-miterlimit="10"/>
<path d="M164.809 318.505L113.046 321.454" stroke="#231F20" stroke-miterlimit="10"/>
<path d="M158.236 336.642L89.5176 341.185" stroke="#231F20" stroke-miterlimit="10"/>
<path d="M257.296 312.262L300.82 309.22" stroke="#231F20" stroke-miterlimit="10"/>
<path d="M274.744 327.59L330.669 323.313" stroke="#231F20" stroke-miterlimit="10"/>
<path d="M305.984 355.039L383.829 348.411" stroke="#231F20" stroke-miterlimit="10"/>
<path d="M510.42 408.183L384.815 424.301" stroke="#231F20" stroke-miterlimit="10"/>
<path d="M394.211 109.257L399.129 279.567L349.59 276.572V145.199L394.211 109.257Z" stroke="#231F20" stroke-miterlimit="10"/>
<path d="M122.154 313.471L120.94 310.15L118.205 311.631L115.622 124.007L146.357 125.893L152.191 308.569" stroke="#231F20" stroke-miterlimit="10"/>
<path d="M21.8204 397.968L17.6653 387.555L0.293457 398.958V0.332092H11.1684L30.6061 390.603" stroke="#231F20" stroke-miterlimit="10"/>
<path d="M559.707 149.855L447.617 164.253L452.066 368.136L499.962 388.797L496.652 401.681L547.458 425.669L550.839 412.134L559.707 415.548V431.454V149.855Z" stroke="#231F20" stroke-miterlimit="10"/>
<path d="M559.707 149.855V0.332092H0.293457V518.402H559.707V431.454L282.468 300.553" stroke="#231F20" stroke-miterlimit="10"/>
<path d="M146.357 125.893L255.066 131.585V135.835V140.238L146.633 134.587L146.463 129.2L146.357 125.893Z" stroke="#231F20" stroke-miterlimit="10"/>
<path d="M146.463 129.2L255.066 135.835" stroke="#231F20" stroke-miterlimit="10"/>
<path d="M223.773 129.944L227.095 283.359" stroke="#231F20" stroke-miterlimit="10"/>
<path d="M224.994 138.671L228.199 283.359" stroke="#231F20" stroke-miterlimit="10"/>
<path d="M249.467 301.829L249.027 284.8L248.141 283.359L178.689 286.241L177.363 287.875L178.249 329.111L179.464 330.486L189.875 329.862L242.489 325.976" stroke="#231F20" stroke-miterlimit="10"/>
<path d="M249.467 323.845V319.083" stroke="#231F20" stroke-miterlimit="10"/>
<path d="M249.467 305.382V308.304" stroke="#231F20" stroke-miterlimit="10"/>
<path d="M192.322 329.682L192.78 347.202H190.35L189.875 329.862" stroke="#231F20" stroke-miterlimit="10"/>
<path d="M238.352 326.395V341.703L236.826 341.185V326.395" stroke="#231F20" stroke-miterlimit="10"/>
<path d="M191.929 347.733C193.064 347.733 193.983 346.693 193.983 345.409C193.983 344.125 193.064 343.084 191.929 343.084C190.795 343.084 189.875 344.125 189.875 345.409C189.875 346.693 190.795 347.733 191.929 347.733Z" fill="#231F20" stroke="#231F20" stroke-miterlimit="10"/>
<path d="M118.204 311.631L114.971 313.471L116.585 318.007L116.796 318.312" stroke="#231F20" stroke-miterlimit="10"/>
<path d="M114.971 319.342L113.451 314.819L106.784 318.505L108.797 325.02" stroke="#231F20" stroke-miterlimit="10"/>
<path d="M114.848 318.976L114.971 319.561" stroke="#231F20" stroke-miterlimit="10"/>
<path d="M104.36 328.739L102.206 322.716L93.4263 327.969L96.2492 335.54" stroke="#231F20" stroke-miterlimit="10"/>
<path d="M94.3947 337.101L91.56 329.636L80.8494 336.111L84.5291 345.369" stroke="#231F20" stroke-miterlimit="10"/>
<path d="M78.0734 350.788L75.8491 343.011L58.489 355.258L61.6699 364.543" stroke="#231F20" stroke-miterlimit="10"/>
<path d="M60.4492 365.572L57.6145 357.47L36.7507 372.26L40.3014 382.468" stroke="#231F20" stroke-miterlimit="10"/>
<path d="M168.765 323.871C168.765 323.871 172.726 324.741 172.879 322.828C173.031 320.916 169.398 319.202 168.765 318.498C168.131 317.794 166.828 324.562 166.828 324.562" stroke="#231F20" stroke-miterlimit="10"/>
<path d="M172.685 323.386L171.212 328.626" stroke="#231F20" stroke-miterlimit="10"/>
<path d="M171.247 329.616C171.576 329.994 166.945 344.174 166.945 344.174C166.881 344.858 161.869 345.469 161.869 345.469L166.447 330.858C168.624 330.705 171.206 329.41 171.206 329.41C171.723 328.925 166.717 324.914 166.717 324.914" stroke="#231F20" stroke-miterlimit="10"/>
<path d="M174.986 307.434C174.986 307.434 178.143 309.831 177.363 310.263C176.582 310.695 174.047 311.166 173.389 310.735" stroke="#231F20" stroke-miterlimit="10"/>
<path d="M169.856 318.983L171.212 315.012C171.711 315.403 174.986 314.54 175.608 314.188C176.23 313.836 172.885 311.438 172.885 311.438" stroke="#231F20" stroke-miterlimit="10"/>
<path d="M175.608 314.188C175.989 314.54 172.879 322.835 172.879 322.835C172.879 322.835 173.36 325.976 174.012 330.473C175.649 341.73 178.366 361.494 177.363 361.773" stroke="#231F20" stroke-miterlimit="10"/>
<path d="M177.362 310.263C177.627 310.781 174.463 320.544 174.463 320.544C174.463 320.544 174.352 320.896 173.929 320.703" stroke="#231F20" stroke-miterlimit="10"/>
<path d="M171.529 327.497C171.529 327.497 173.243 339.79 172.873 339.93" stroke="#231F20" stroke-miterlimit="10"/>
<path d="M172.527 333.714L173.73 330.287L172.227 330.486" stroke="#231F20" stroke-miterlimit="10"/>
<path d="M160.12 332.206L164.246 332.511" stroke="#231F20" stroke-miterlimit="10"/>
<path d="M163.007 323.493L164.052 332.206" stroke="#231F20" stroke-miterlimit="10"/>
<path d="M161.646 327.73L162.186 332.359" stroke="#231F20" stroke-miterlimit="10"/>
<path d="M167.063 324.914L163.06 336.795L158.5 336.51" stroke="#231F20" stroke-miterlimit="10"/>
<path d="M158.934 338.289L162.667 338.548L162.508 342.879" stroke="#231F20" stroke-miterlimit="10"/>
<path d="M159.392 343.264H162.438L162.526 342.487" stroke="#231F20" stroke-miterlimit="10"/>
<path d="M162.667 338.548L163.06 336.795" stroke="#231F20" stroke-miterlimit="10"/>
<path d="M169.24 336.981L169.457 343.755" stroke="#231F20" stroke-miterlimit="10"/>
<path d="M163.87 350.211C163.87 350.211 164.299 347.295 164.844 347.202C165.103 347.162 173.865 343.695 173.947 343.536C174.105 343.224 172.034 337.393 171.529 337.393C171.024 337.393 169.346 344.911 169.346 344.911L169.24 345.356" stroke="#231F20" stroke-miterlimit="10"/>
<path d="M173.947 343.536L169.234 361.972C169.234 361.972 168.107 363.062 167.368 363.294" stroke="#231F20" stroke-miterlimit="10"/>
<path d="M153.124 350.742C153.124 350.742 161.082 350.39 161.452 349.639C161.822 348.889 162.262 348.49 162.262 348.49L162.303 345.416" stroke="#231F20" stroke-miterlimit="10"/>
<path d="M150.818 358.26C150.818 358.26 158.753 357.509 159.099 357.244C159.445 356.978 162.262 348.49 162.262 348.49C162.262 348.49 168.63 355.258 168.395 356.58C168.16 357.901 161.482 361.78 161.482 361.78L156.44 378.556L156.364 381.073C156.364 381.073 163.043 390.364 162.779 392.044C162.638 392.941 155.038 401.243 151.323 403.275" stroke="#231F20" stroke-miterlimit="10"/>
<path d="M157.033 381.385C157.033 381.385 162.133 379.339 162.385 378.556C162.385 378.556 169.575 356.626 168.401 356.58" stroke="#231F20" stroke-miterlimit="10"/>
<path d="M157.268 381.285L156.833 381.385L156.64 381.458" stroke="#231F20" stroke-miterlimit="10"/>
<path d="M173.014 347.202L175.226 370.208" stroke="#231F20" stroke-miterlimit="10"/>
<path d="M171.265 354.541L173.577 377.912" stroke="#231F20" stroke-miterlimit="10"/>
<path d="M171.529 386.585L169.24 361.972" stroke="#231F20" stroke-miterlimit="10"/>
<path d="M175.848 427.164L168.307 363.042" stroke="#231F20" stroke-miterlimit="10"/>
<path d="M164.639 371.483L165.519 377.912" stroke="#231F20" stroke-miterlimit="10"/>
<path d="M166.165 383.975L169.24 412.413" stroke="#231F20" stroke-miterlimit="10"/>
<path d="M165.989 367.06L167.362 376.663L162.385 378.556L169.85 448.044" stroke="#231F20" stroke-miterlimit="10"/>
<path d="M167.702 380.535L169.85 400.014" stroke="#231F20" stroke-miterlimit="10"/>
<path d="M163.77 387.621C163.77 387.621 169.404 376.915 167.362 376.67" stroke="#231F20" stroke-miterlimit="10"/>
<path d="M159.017 380.535L160.096 386.585" stroke="#231F20" stroke-miterlimit="10"/>
<path d="M160.824 401.475L166.165 451.272" stroke="#231F20" stroke-miterlimit="10"/>
<path d="M158.436 408.973L165.707 477.312" stroke="#231F20" stroke-miterlimit="10"/>
<path d="M162.779 392.038C162.779 392.038 158.641 412.699 155.947 419.965" stroke="#231F20" stroke-miterlimit="10"/>
<path d="M156.276 424.394L152.52 438.753" stroke="#231F20" stroke-miterlimit="10"/>
<path d="M119.373 445.965C119.373 445.965 137.648 445.713 137.537 444.212C137.425 442.711 146.762 406.018 147.966 406.004C147.966 406.004 158.271 423.099 155.947 425.238C153.623 427.376 140.5 441.615 139.344 442.186C138.54 442.585 132.161 466.44 129.285 477.326C128.434 480.547 127.888 482.632 127.888 482.632C127.888 482.632 145.542 466.66 144.926 464.833L152.625 438.361L159.251 497.011" stroke="#231F20" stroke-miterlimit="10"/>
<path d="M129.285 477.312C128.898 478.634 114.941 478.986 109.102 479.072C107.553 479.099 106.573 479.099 106.573 479.099" stroke="#231F20" stroke-miterlimit="10"/>
<path d="M161.969 349.38L158.934 359.243L149.632 360.385L152.127 380.017" stroke="#231F20" stroke-miterlimit="10"/>
<path d="M150.818 368.979L156.511 368.056L158.934 359.243" stroke="#231F20" stroke-miterlimit="10"/>
<path d="M157.268 375.813L156.51 368.056" stroke="#231F20" stroke-miterlimit="10"/>
<path d="M147.514 366.223L149.632 380.017" stroke="#231F20" stroke-miterlimit="10"/>
<path d="M142.824 379.167C142.824 379.167 154.234 380.973 154.515 380.017" stroke="#231F20" stroke-miterlimit="10"/>
<path d="M157.268 382.295L156.64 380.017L148.277 404.842" stroke="#231F20" stroke-miterlimit="10"/>
<path d="M137.672 393.373L151.522 393.771" stroke="#231F20" stroke-miterlimit="10"/>
<path d="M135.928 398.194L151.041 396.627" stroke="#231F20" stroke-miterlimit="10"/>
<path d="M132.378 407.977L137.537 444.212" stroke="#231F20" stroke-miterlimit="10"/>
<path d="M128.792 417.873L132.753 445.348" stroke="#231F20" stroke-miterlimit="10"/>
<path d="M133.452 415.521L145.096 414.213" stroke="#231F20" stroke-miterlimit="10"/>
<path d="M133.716 417.368L144.462 416.431" stroke="#231F20" stroke-miterlimit="10"/>
<path d="M108.198 487.819L109.102 479.079" stroke="#231F20" stroke-miterlimit="10"/>
<path d="M130.77 480.64L134.954 517.599L149.128 473.367C149.128 473.367 165.226 516.795 162.062 517.599" stroke="#231F20" stroke-miterlimit="10"/>
<path d="M456.35 320.962C456.35 320.962 453.733 321.062 453.422 317.648C453.111 314.235 451.696 283.532 453.422 280.928C455.294 278.112 459.59 279.434 460.071 282.735C460.376 284.833 460.047 304.392 460.253 313.132C460.476 322.516 456.35 320.956 456.35 320.956V320.962Z" fill="#231F20" stroke="#231F20" stroke-miterlimit="10"/>
<path d="M456.726 314.407C458.019 314.407 459.067 313.141 459.067 311.578C459.067 310.015 458.019 308.749 456.726 308.749C455.432 308.749 454.384 310.015 454.384 311.578C454.384 313.141 455.432 314.407 456.726 314.407Z" fill="#231F20" stroke="#231F20" stroke-miterlimit="10"/>
<path d="M456.726 311.578C456.726 311.578 470.394 313.683 470.911 313.391C471.427 313.099 471.433 315.603 470.911 315.603C470.389 315.603 457.636 314.454 457.049 313.59" fill="#231F20"/>
<path d="M456.726 311.578C456.726 311.578 470.394 313.683 470.911 313.391C471.427 313.099 471.433 315.603 470.911 315.603C470.389 315.603 457.636 314.454 457.049 313.59" stroke="#231F20" stroke-miterlimit="10"/>
<path d="M286.811 302.606L287.867 299.876L295.127 302.606L294.2 306.092" stroke="#231F20" stroke-miterlimit="10"/>
<path d="M302.709 306.092L295.133 302.606" stroke="#231F20" stroke-miterlimit="10"/>
<path d="M301.906 309.732L302.545 305.727" stroke="#231F20" stroke-miterlimit="10"/>
<path d="M258.793 301.829L255.066 131.585L277.55 133.079L282.468 300.553L246.451 302.984L490.859 518.303" stroke="#231F20" stroke-miterlimit="10"/>
<path d="M307.939 312.262L308.854 309.406L317.687 313.863L316.812 316.459" stroke="#231F20" stroke-miterlimit="10"/>
<path d="M319.295 317.542L320.369 313.212L331.344 318.405L330.082 322.689" stroke="#231F20" stroke-miterlimit="10"/>
<path d="M339.607 327.192L340.828 323.313L357.466 330.612L356.204 334.942" stroke="#231F20" stroke-miterlimit="10"/>
<path d="M378.805 345.628L379.955 341.172L357.466 331.695" stroke="#231F20" stroke-miterlimit="10"/>
<path d="M397.016 354.64L397.914 350.702L446.449 363.281L444.466 377.042" stroke="#231F20" stroke-miterlimit="10"/>
<path d="M447.06 378.264L449.583 367.79L453.316 368.673" stroke="#231F20" stroke-miterlimit="10"/>
<path d="M240.406 302.606C240.406 302.606 237.964 306.272 246.451 306.092C246.451 306.092 244.983 307.846 245.576 308.556C246.169 309.267 251.345 308.556 251.345 308.556L252.179 314.334" stroke="#231F20" stroke-miterlimit="10"/>
<path d="M240.33 304.558L243.945 314.693H247.108L245.576 308.556" stroke="#231F20" stroke-miterlimit="10"/>
<path d="M247.108 314.693L248.739 318.857L245.576 360.943" stroke="#231F20" stroke-miterlimit="10"/>
<path d="M244.115 315.005L241.65 353.744" stroke="#231F20" stroke-miterlimit="10"/>
<path d="M247.947 329.377L246.451 359.409" stroke="#231F20" stroke-miterlimit="10"/>
<path d="M252.073 327.809H247.66L243.716 323.625L248.147 323.845L252.179 324.203" stroke="#231F20" stroke-miterlimit="10"/>
<path d="M252.179 313.358C252.179 313.358 250.571 316.366 251.58 317.296C252.589 318.226 257.965 317.296 257.965 317.296V319.946" stroke="#231F20" stroke-miterlimit="10"/>
<path d="M251.586 317.296L252.983 322.018L255.06 329.031H255.888H260.19" stroke="#231F20" stroke-miterlimit="10"/>
<path d="M250.001 367.684L252.983 322.018" stroke="#231F20" stroke-miterlimit="10"/>
<path d="M258.793 317.296C258.793 317.296 258.353 319.229 257.971 322.45C257.924 322.855 258.012 323.16 258.206 323.393C259.562 325 266 322.808 266 322.808L267.837 330.034" stroke="#231F20" stroke-miterlimit="10"/>
<path d="M258.206 323.386L260.19 329.031L262.396 335.334L268.741 335.872" stroke="#231F20" stroke-miterlimit="10"/>
<path d="M268.594 327.172C268.594 327.172 266.317 332.252 267.837 332.824C269.357 333.395 277.01 334.371 277.01 334.371L280.003 343.324" stroke="#231F20" stroke-miterlimit="10"/>
<path d="M252.179 377.765L255.888 329.031" stroke="#231F20" stroke-miterlimit="10"/>
<path d="M259.556 333.76H251.897L248.74 327.809" stroke="#231F20" stroke-miterlimit="10"/>
<path d="M260.19 330.034L256.533 387.03" stroke="#231F20" stroke-miterlimit="10"/>
<path d="M262.396 335.334L258.359 387.694" stroke="#231F20" stroke-miterlimit="10"/>
<path d="M267.837 332.824L269.732 339.219L269.92 339.857L270.396 341.464L272.456 348.411L259.151 346.226L255.037 340.162" stroke="#231F20" stroke-miterlimit="10"/>
<path d="M255.09 339.531L270.09 340.435" stroke="#231F20" stroke-miterlimit="10"/>
<path d="M268.741 335.872L264.732 399.768" stroke="#231F20" stroke-miterlimit="10"/>
<path d="M275.543 335.872C275.543 335.872 273.271 342.905 275.543 343.084C277.814 343.264 286.811 344.844 286.811 344.844L291.295 362.909L279.991 360.936L275.537 343.084" stroke="#231F20" stroke-miterlimit="10"/>
<path d="M277.01 349.314L272.456 348.411L267.837 408.993" stroke="#231F20" stroke-miterlimit="10"/>
<path d="M274.539 428.034L279.997 360.943" stroke="#231F20" stroke-miterlimit="10"/>
<path d="M275.677 425.165L279.222 370.46" stroke="#231F20" stroke-miterlimit="10"/>
<path d="M289.147 354.242L296.641 352.641L289.147 344.851H286.811" stroke="#231F20" stroke-miterlimit="10"/>
<path d="M278.319 338.296H280.854L289.147 344.851" stroke="#231F20" stroke-miterlimit="10"/>
<path d="M300.221 370.46L288.489 373.229L279.093 372.439L271.405 362.138L289.886 362.915L284.299 448.921" stroke="#231F20" stroke-miterlimit="10"/>
<path d="M291.301 360.943L299.347 359.409H304.13L315.298 369.125H304.687" stroke="#231F20" stroke-miterlimit="10"/>
<path d="M299.347 357.111C299.347 357.111 298.554 362.358 300.168 365.911C300.708 367.093 301.512 368.096 302.709 368.647C307.481 370.859 316.278 373.229 316.278 373.229L323.82 397.092L306.782 391.088L299.605 364.264" stroke="#231F20" stroke-miterlimit="10"/>
<path d="M300.221 476.728L306.783 391.088" stroke="#231F20" stroke-miterlimit="10"/>
<path d="M321.672 396.335L320.21 429.654L316.554 512.917" stroke="#231F20" stroke-miterlimit="10"/>
<path d="M305.409 408.993L320.21 429.654L358.241 427.057" stroke="#231F20" stroke-miterlimit="10"/>
<path d="M330.587 377.101C330.587 377.101 329.923 386.027 331.174 389.627C331.455 390.43 331.831 390.968 332.33 391.081C332.33 391.081 347.301 401.827 356.063 401.827L365.741 430.544L337.899 417.567L331.455 390.424" stroke="#231F20" stroke-miterlimit="10"/>
<path d="M329.601 518.303L337.899 417.574" stroke="#231F20" stroke-miterlimit="10"/>
<path d="M358.781 518.303L362.93 429.654" stroke="#231F20" stroke-miterlimit="10"/>
<path d="M469.215 518.303L461.785 496.194C457.407 495.842 412.017 473.978 412.017 473.978C404.974 470.625 392.039 436.535 392.039 436.535L403.472 480.221C403.472 480.221 408.537 493.198 415.198 504.442C418.578 510.154 422.375 515.414 426.131 518.303" stroke="#231F20" stroke-miterlimit="10"/>
<path d="M404.974 483.867L401.248 518.303" stroke="#231F20" stroke-miterlimit="10"/>
<path d="M404.387 464.807L418.93 462.482L387.526 431.454L335.135 441.363L361.011 470.625L398.413 466.427" stroke="#231F20" stroke-miterlimit="10"/>
<path d="M364.004 425.391H374.028L359.467 411.935" stroke="#231F20" stroke-miterlimit="10"/>
<path d="M305.673 405.526L335.135 406.642" stroke="#231F20" stroke-miterlimit="10"/>
<path d="M302.199 373.947L278.618 375.674C280.895 379.858 288.319 387.044 288.319 387.044L305.984 390.165" stroke="#231F20" stroke-miterlimit="10"/>
<path d="M319.894 384.679H328.703L316.278 373.229" stroke="#231F20" stroke-miterlimit="10"/>
<path d="M389.451 509.377L387.121 467.696" stroke="#231F20" stroke-miterlimit="10"/>
<path d="M375.031 502.656L372.302 469.363" stroke="#231F20" stroke-miterlimit="10"/>
<path d="M330.41 443.628L329.601 429.654" stroke="#231F20" stroke-miterlimit="10"/>
<path d="M342.166 440.035V428.034" stroke="#231F20" stroke-miterlimit="10"/>
<path d="M368.658 425.391V434.031" stroke="#231F20" stroke-miterlimit="10"/>
<path d="M350.224 469.363L349.091 457.149" stroke="#231F20" stroke-miterlimit="10"/>
<path d="M349.091 438.72L348.076 428.034" stroke="#231F20" stroke-miterlimit="10"/>
<path d="M326.261 372.784V382.049" stroke="#231F20" stroke-miterlimit="10"/>
<path d="M324.782 406.642L326.22 384.679" stroke="#231F20" stroke-miterlimit="10"/>
<path d="M316.278 405.526L317.129 394.734" stroke="#231F20" stroke-miterlimit="10"/>
<path d="M314.635 457.149L314.917 422.269" stroke="#231F20" stroke-miterlimit="10"/>
<path d="M283.659 403.826L284.052 382.634" stroke="#231F20" stroke-miterlimit="10"/>
<path d="M280.537 400.134L281.23 379.379" stroke="#231F20" stroke-miterlimit="10"/>
<path d="M286.952 338.661V343.111" stroke="#231F20" stroke-miterlimit="10"/>
<path d="M284.152 336.197L284.135 340.886" stroke="#231F20" stroke-miterlimit="10"/>
<path d="M318.467 366.429V375.248" stroke="#231F20" stroke-miterlimit="10"/>
<path d="M263.746 370.46L264.732 350.901" stroke="#231F20" stroke-miterlimit="10"/>
<path d="M261.528 368.527V346.618L267.837 355.039L278.835 356.281" stroke="#231F20" stroke-miterlimit="10"/>
<path d="M249.467 350.901L251.897 333.76" stroke="#231F20" stroke-miterlimit="10"/>
</g>
<defs>
<clipPath id="clip0_196_65">
<rect width="560" height="519" fill="white"/>
</clipPath>
</defs>
</svg>
