<?xml version="1.0" encoding="UTF-8"?><svg id="b" xmlns="http://www.w3.org/2000/svg" width="1715.95" height="678.77" viewBox="0 0 1715.95 678.77"><defs><style>.c{fill:#e8d095;}</style></defs><path class="c" d="M5.16,677.33c-9.98-106.69,14.78-227.61,99.01-300.78,37.89-32.91,86.51-54.21,136.54-58.88,50.72-4.74,98.14,9.24,138.72,39.73,36.27,27.26,71.46,66.62,118.95,72.41,48.19,5.88,87.93-28.84,108.44-69.53,19.35-38.4,29.78-100.35-16.08-124.65-42.08-22.3-94.38,1.04-117.6,39.55-25.07,41.58-14.48,96.52,15.2,132.79,32.76,40.02,88.62,59.58,139.45,55.97,25.5-1.81,48.25-11.59,64.28-31.93,16.33-20.73,26.18-47.81,32.34-73.21,6.71-27.68,8.12-57.25-.69-84.64-6.94-21.58-19.62-40.72-33.01-58.79-26.71-36.02-63.97-74.64-59.84-123.11,4.43-52.08,57.96-88.51,107.28-89.58,56.68-1.23,107.52,35.09,142.32,76.93,39.36,47.32,64.06,104.41,96.68,156.17,28.01,44.42,61.48,86.34,103.21,118.63,45.39,35.11,98.46,53.89,155.05,61.23,63.12,8.18,128.07,6.44,191.46,2.82,65.14-3.72,130.04-11.57,194.19-23.47,31.47-5.84,62.74-12.69,93.79-20.45,1.87-.47,1.08-3.36-.8-2.89-125.19,31.27-254.1,46.97-383.15,46.29-59.81-.31-121.25-3.5-177.63-25.31-51.33-19.86-94.41-55.68-129.52-97.49-36.63-43.62-62.95-93.48-91.08-142.66-26.91-47.04-57.79-93.37-103.74-123.8-39.77-26.33-89.78-38.56-135.05-19.21-38.39,16.41-69.24,53.03-66.07,96.5,3.17,43.57,35.57,77.56,60.29,110.91,13.82,18.65,27,38.49,33.6,60.98,8.84,30.11,5.48,62.33-3.42,92-7.91,26.38-19.47,55.58-41.39,73.51-23.6,19.31-57.1,20.23-85.95,15.98-54.27-7.99-105.63-40.94-123-94.94-8.21-25.55-8.37-54.48,3.15-79.08,10.89-23.27,31.54-41.87,55.76-50.41,25.54-9.01,57.83-6.11,77.23,14.47,19.25,20.42,18.72,51.58,12.24,77.11-11.94,47.02-49.06,97.45-101.23,100.85-50.91,3.31-90.06-38.09-126.9-66.94-36.08-28.25-76.13-45.63-122.41-46.65-45.54-1.01-91.13,12.46-129.94,36.02C49.58,402.16,8.15,502.43,1.14,599.78c-1.86,25.84-1.39,51.77,1.02,77.55.18,1.91,3.18,1.92,3,0h0Z"/></svg>