<?xml version="1.0" encoding="UTF-8"?><svg id="b" xmlns="http://www.w3.org/2000/svg" width="351.21" height="348.38" viewBox="0 0 351.21 348.38"><defs><style>.c{stroke:#000;stroke-miterlimit:10;}</style></defs><path class="c" d="M39.28,164.31C14.76,154.64,1.66,142.19.36,127.32c-2.73-31.07,47.67-62.41,48.17-62.72l.52.85c-.5.31-50.38,31.33-47.7,61.78,1.27,14.46,14.15,26.63,38.29,36.15l-.37.93Z"/><path class="c" d="M276.69,113.32c-4.2,0-12.06-8.29-13.65-10.02-1.63.26-9.74,1.07-20.37-6.59-.16,1.73-.78,5.33-3.28,6.48-2.1.97-4.96-.05-8.49-3.04-12.77-10.81-40.54-18.82-40.81-18.9l-.11-.05c-.12-.07-11.97-6.8-26.56-.97-3.08,1.23-7.63,1.73-12.91,1.73-20.17,0-51.18-7.19-53.34-7.69-2.4-.06-43.32-1.17-48.36-9.23l.85-.53c4.8,7.68,47.16,8.76,47.59,8.77h.1c.51.13,51.02,11.91,65.7,6.04,14.52-5.81,26.45.48,27.38,1,1.43.41,28.48,8.38,41.13,19.08,3.21,2.71,5.71,3.69,7.42,2.9,2.69-1.24,2.75-6.47,2.75-6.52v-.99s.8.6.8.6c11.65,8.74,20.5,6.93,20.59,6.91l.28-.06.2.21c2.73,3,10.46,10.6,13.51,9.85,2.89-.72,2.16-7.04,1.63-9.41l-.28-1.24,1.05.72c4.79,3.28,9.87,3.09,11.27,2.96.59-6.77-7.86-18.13-7.95-18.25l-.13-.17.04-.21c.96-5.74-10.8-23.46-10.92-23.64l-.07-.1v-.12c-.66-5.14-4.34-9.07-7.6-12.54-1.7-1.81-3.31-3.53-4.35-5.26-2.9-4.83-20.64-14.72-20.81-14.82l-1.3-.72,1.47-.21c7.04-1.01,23.33,4.42,24.02,4.65.34.18,25.5,14.58,38.39,26.48,6.88,6.35,11.38,7.51,13.97,7.35,2.27-.13,3.27-1.26,3.31-1.31.59-.7.81-1.55.69-2.59-.78-6.43-14.46-16.58-14.6-16.68-.13-.11-11.18-9.16-25.03-21.02-13.66-11.71-22.59-11.88-22.68-11.88l-21.07-3L191.11,1.25c-6.02-.37-16.2-.48-17.54.87-2.02,2.02-55.57,9.63-66.28,11.14-.62.07-60.96,7.04-67.78,11.91-7.02,5.02-30.24,7.97-31.23,8.09l-.12-.99c.24-.03,23.96-3.04,30.77-7.91,7.02-5.02,65.74-11.8,68.23-12.09,25.41-3.57,63.9-9.42,65.71-10.87,2.09-2.09,16.71-1.24,18.38-1.14l45.08,10.01,20.96,2.99c.31,0,9.28.14,23.25,12.12,13.83,11.86,24.88,20.9,24.99,20.99.56.41,14.15,10.5,14.98,17.35.16,1.31-.15,2.44-.91,3.36-.05.06-1.27,1.49-3.96,1.66-2.77.17-7.59-.99-14.76-7.62-12.81-11.82-37.87-26.16-38.12-26.31-.07-.02-14.36-4.75-21.85-4.68,4.38,2.51,17.18,10.09,19.74,14.36.99,1.64,2.56,3.32,4.22,5.09,3.33,3.56,7.11,7.58,7.83,12.98,1.04,1.57,11.75,17.91,11.04,24.05,1.13,1.54,8.94,12.45,7.97,19.2l-.05.36-.36.06c-.24.04-5.77.89-11.38-2.45.41,2.57.96,8.56-2.58,9.44-.21.05-.42.08-.65.08Z"/><path class="c" d="M241.9,96.14c-.33-.28-32.96-27.88-41.68-27.88l-.14-.02-16.93-4.98h-29.29c-1.87.68-33.46,11.96-56.65,11l.04-1c23.66.99,56.03-10.85,56.35-10.97l.17-.03,29.59.02,16.93,4.98c9.18.14,40.9,26.97,42.25,28.12l-.65.76Z"/><path class="c" d="M266.29,103.51c-1.5,0-2.86-.21-3.15-.26l.16-.99c2.18.36,5.86.48,6.47-.73,0,0,.13-.34-.54-1.7-2.17-4.38-10.03-13.82-13.14-14.59l-.13-.03-.1-.1-25.95-25.95c-13.12-7.59-38.85-21.9-42.69-21.9v-1c5.08,0,41.69,21.17,43.25,22.07l.1.08,25.91,25.91c3.63,1.11,11.72,10.88,13.8,15.4.5,1.08.62,1.8.38,2.27-.62,1.23-2.59,1.53-4.38,1.53Z"/><path class="c" d="M279.28,103.49c-3.95-7.43-14.72-27.06-17.14-28.7-3.12-2.11-6.66-15.38-7.06-16.88,0,0-2.57-5.99-21.36-14.01-19.17-8.18-39.58-22.59-39.79-22.74l.58-.82c.2.14,20.54,14.5,39.6,22.64,19.31,8.24,21.82,14.37,21.92,14.62,1.06,4.04,4.29,14.75,6.67,16.36,3.12,2.11,16.88,27.96,17.46,29.05l-.88.47Z"/><path class="c" d="M239.03,30.22c-1.52-.62-37.23-15.16-40.27-22.27l.92-.39c2.88,6.73,39.36,21.58,39.73,21.73l-.38.93Z"/><path class="c" d="M48.17,124.78h23.77s-.23.95-.23.95h-22.67s-3.89,17.48-3.89,17.48h21.28s-.23.95-.23.95h-21.28s-4.41,19.7-4.41,19.7h-1.04l8.71-39.07Z"/><path class="c" d="M79.54,124.78h1.04l-8.48,38.13h22.27s-.41.95-.41.95h-23.14s8.71-39.08,8.71-39.08Z"/><path class="c" d="M110.68,124.79l-8.71,39.07h-1.04l8.71-39.07h1.04Z"/><path class="c" d="M130.33,125.74h-14.03s.23-.95.23-.95h29.11s-.23.95-.23.95h-14.03s-8.48,38.13-8.48,38.13h-1.04l8.48-38.13Z"/><path class="c" d="M162.74,125.74h-14.03s.23-.95.23-.95h29.11s-.23.95-.23.95h-14.03s-8.48,38.13-8.48,38.13h-1.04l8.48-38.13Z"/><path class="c" d="M185.7,124.81l-8.71,39.07h-1.04l8.71-39.07h1.04Z"/><path class="c" d="M219.56,163.89h-.99c.23-1.22.75-3.61,1.86-8.6-3.66,7.16-9.16,9.16-15.83,9.15-9.16,0-14.21-6.33-14.2-15.21,0-12.54,7.37-24.97,21.81-24.97,7.07,0,13.22,3.17,13.91,11.05h-1.04c-.69-6.72-5.74-10.1-13.05-10.1-13.28,0-20.53,11.71-20.53,23.97,0,8.27,4.64,14.32,13.39,14.32,10.09,0,14.96-5.94,17.05-15.09l.7-3.11h-14.27s.23-.95.23-.95h15.31s-4.35,19.54-4.35,19.54Z"/><path class="c" d="M256.73,143.64h-21.46s-4.24,19.31-4.24,19.31h24.12s-.46.95-.46.95h-24.93s8.71-39.08,8.71-39.08h23.6s-.23.95-.23.95h-22.56s-3.77,16.92-3.77,16.92h21.46s-.23.95-.23.95Z"/><path class="c" d="M38.94,191.37h1.1l-4.01,17.87h26.15s4.01-17.87,4.01-17.87h1.04l-8.71,39.07h-1.04s4.47-20.26,4.47-20.26h-26.15s-4.47,20.25-4.47,20.25h-1.1s8.71-39.07,8.71-39.07Z"/><path class="c" d="M122.72,191.39l-.23.94h-21.63s-3.77,16.92-3.77,16.92h21.05s-.23.95-.23.95h-21.05s-4.24,19.31-4.24,19.31h23.48s-.41.95-.41.95h-24.35s3.6-16.38,3.6-16.38h-14.84s-14.85,16.37-14.85,16.37h-1.33s35.56-39.07,35.56-39.07h23.25ZM95.17,213.14l4.64-20.65h-.06l-18.79,20.64h14.21Z"/><path class="c" d="M123.23,230.47l8.71-39.07h1.51c4.7,9.94,16.69,35.19,17.85,37.91l.12.05c.06-1.05,2.61-12.21,4.01-18.54l4.35-19.43h1.1l-8.71,39.07h-1.45c-4.46-9.6-16.52-35.03-17.97-38.14l-.06-.17c-.75,4-2.32,10.99-3.89,18.15l-4.47,20.15h-1.1Z"/><path class="c" d="M172.59,191.4h10.79c10.61,0,16.47,7,16.41,16.27-.06,13.65-9.28,22.81-23.37,22.81h-12.52s8.71-39.08,8.71-39.08ZM165.21,229.53h11.31c12.87,0,22.15-8.37,22.16-21.75,0-9.21-5.51-15.43-15.48-15.43h-9.8s-8.19,37.18-8.19,37.18Z"/><path class="c" d="M231.49,210.23h-21.46s-4.24,19.31-4.24,19.31h24.12s-.46.95-.46.95h-24.93s8.71-39.08,8.71-39.08h23.6s-.23.95-.23.95h-22.56s-3.77,16.92-3.77,16.92h21.46s-.23.95-.23.95Z"/><path class="c" d="M242.45,210.95l-4.3,19.54h-1.1l8.71-39.07h12.41c6.73,0,10.55,3.39,10.55,8.72,0,6.22-4.29,9.88-11.48,10.38,3.77.72,7.94,3.22,6.09,11.1-1.45,6.27-1.51,7.83-1.57,8.88h-1.04c-.06-1.72.52-4.22,1.63-8.99,1.51-6.83-.98-10.55-9.56-10.55h-10.32ZM242.68,210.01h9.57c8.23,0,15.37-1.71,15.37-9.82,0-4.88-3.36-7.83-9.57-7.83h-11.42s-3.95,17.65-3.95,17.65Z"/><path class="c" d="M321.26,298.98c-4.39,1.61-22.78-5.28-31.88-9.14l-23.38-10.81c-43.37-26.16-60.51-20.34-61.13-20.11l-74.73,13.13c-23.14-8.19-30.87-5.86-32.49-5.12-4.05-3.22-6.72-4.76-7.92-4.58-.21.02-.34.1-.43.18-2.51,1.43-3.2,4.04-3.35,4.8-1.76,1.4-3.26,3.59-3.33,3.69-1.09,1.6-1.43,3.33-.99,5.12,1.16,4.8,7.45,8.6,8.68,9.3,2.06,8.57,3.72,17.9,3.01,19.03-1.65.27-5.05-.6-5.81-.81-2.04-2.56-5.41-5.99-8.68-9.31-4.1-4.17-9.71-9.88-9.42-10.95l.12-.18-.05-.21c-.91-3.68-12.98-24-19.72-25.53-1.24-.28-2.3.06-3.07.99-5.81,7.06,9.76,34.86,10.8,36.23l10.38,13.64c-11.25,2.78-32.91.59-34.51.42-13.73-7.12-18.4-6.92-22.16-6.77-.56.02-1.1.05-1.65.04-1.19-.01-2.03.38-2.5,1.18-1.12,1.89.41,5.47,1.2,7.06-4.27.05-6.92.82-7.88,2.3-.67,1.04-.24,2.01-.22,2.05l.05.11.1.07c15.61,12.23,28.71,10.05,30.53,9.67,2.36,1.37,28.28,16.31,44.48,20.03,16.9,3.87,56.24,1.61,57.45,1.38.25-.02,1.22.42,2.01.77,1.93.87,4.58,2.06,6.61,1.68,2.9-.55,17.69-2.34,17.8-2.36l7.06-.32c6.03-.21,25.32-2.31,45.74-4.53,23.96-2.61,48.74-5.3,53.16-5.05,8.03.46,24.83,9.33,25,9.42l.47-.88c-.7-.37-17.16-9.06-25.41-9.53-4.51-.26-29.33,2.44-53.33,5.05-20.4,2.22-39.66,4.32-45.67,4.52l-7.1.32c-.61.07-14.97,1.82-17.9,2.37-1.71.32-4.2-.79-6.01-1.6-1.4-.63-2.1-.93-2.59-.84-1.36.23-40.3,2.47-57.05-1.37-16.75-3.84-44.09-19.85-44.37-20.01l-.18-.11-.2.05c-.13.04-13.45,3.36-29.75-9.35-.05-.18-.1-.58.19-1.01.47-.71,2.12-1.88,7.85-1.83h.86s-.42-.74-.42-.74c-.76-1.36-2.53-5.24-1.6-6.8.28-.47.82-.69,1.63-.69.56,0,1.12-.02,1.7-.04,3.64-.15,8.18-.34,21.74,6.7l.18.05c.98.11,24.12,2.58,35.69-.63l.71-.2-11.28-14.82c-1.67-2.19-15.89-28.84-10.82-34.99.53-.64,1.19-.85,2.07-.65,6.05,1.38,17.71,20.46,18.92,24.64-.46,1.48,2.57,4.77,9.65,11.97,3.3,3.36,6.71,6.83,8.71,9.36l.1.13.16.04c.18.05,4.44,1.25,6.5.86.16-.03.39-.12.56-.4,1.34-2.08-2.19-17.06-2.91-20.05l-.05-.22-.19-.11c-.07-.04-7.22-3.99-8.38-8.77-.36-1.51-.08-2.96.85-4.32.02-.02,1.57-2.29,3.26-3.58l.16-.13.03-.2s.43-2.91,2.93-4.31l.06-.03c.25-.02,1.78.1,7.38,4.58l.29.22.3-.19c.06-.04,6.62-3.93,32.06,5.09l.12.04,75.07-13.2s4.35-1.51,13.91.19c8.83,1.58,24.05,6.3,46.5,19.83l23.44,10.84c1.09.46,26.83,11.31,32.55,9.19.25-.05.54-.12.85-.2-.12-.31-.86-.81-1.11-.76Z"/><path class="c" d="M30.82,324.42c-15.89-3.11-21.92-12.99-22.16-13.4l.86-.51c.06.1,6.07,9.91,21.5,12.93l-.19.98Z"/><path class="c" d="M132.52,345.84c-1.67-.55-40.68-13.43-50.65-20.79-1.6.95-9.12,4.81-16.75-1.17-8.2-6.43-31.82-14.1-32.06-14.17l.31-.95c.98.32,24.03,7.8,32.37,14.34,7.97,6.24,15.55,1.16,15.87.94l.3-.21.29.22c9.36,7.22,50.22,20.7,50.63,20.84l-.31.95Z"/><path class="c" d="M81.99,324.94c-.92.18-2.78-.45-8.19-7.9-2.9-3.99-5.48-8.11-5.5-8.15l.85-.53c4.94,7.91,11.02,15.91,12.66,15.6l.19.98Z"/><path class="c" d="M161.57,345.95c-2.46-.69-60.23-16.96-64.36-30.67-4.54-12.96-3.92-13.56-3.66-13.81l.7.72c.08-.07.09-.14.09-.15-.16.81,1.82,7.21,3.82,12.94,3.98,13.21,63.08,29.85,63.68,30.02l-.27.96Z"/><path class="c" d="M90.26,285.26c-5.22-17.35-4.59-17.81-4.25-18.06.2-.14.46-.15.68,0l-.56.83.28-.41.11.44c.17-.07.23-.21.24-.25-.17.93,2.18,9.54,4.47,17.17l-.96.29Z"/><path class="c" d="M151.96,317.69c-6.77,1.28-16.28-.22-16.79-.31-20.57-5.75-26.71-12.64-26.96-12.93l-.11-.12v-.16c-.02-.08-.77-8.26-5.08-16.13-1.37-2.5-2.11-4.69-2.34-6.88-1.19-11.35-3.36-13.2-3.39-13.22l.58-.82c.26.18,2.56,2.07,3.8,13.93.21,2.06.92,4.12,2.23,6.5,4.07,7.42,5.04,15.1,5.17,16.35.88.91,7.54,7.24,26.32,12.5.1.01,15.73,2.49,20.83-1.4l.61.8c-1.21.92-2.93,1.52-4.86,1.89Z"/><path class="c" d="M114.46,308.03l-.69-.73c5.08-4.82,13.01-9.3,23.58-13.31,10.52-3.99,19.94-6.06,20.04-6.08l.21.98c-.09.02-9.45,2.07-19.9,6.04-10.44,3.96-18.27,8.37-23.25,13.1Z"/><path class="c" d="M137.37,294.94c-27.98-9.26-31.63-5.19-31.66-5.15l-.83-.56c.33-.52,4.02-4.77,32.81,4.76l-.32.95Z"/><path class="c" d="M173.45,301.46l-.62-.79c.21-.16,20.81-16.16,43.09-11.23l-.22.98c-21.81-4.83-42.05,10.88-42.26,11.04Z"/><path class="c" d="M320.56,300.28c-.15,0-.29,0-.41-.02l.13-.99c2.64.36,26.45-6.68,29.44-25.58,1.38-8.72-.18-15.17-4.63-19.15-6.73-6.03-19.77-6.46-38.74-1.29-16.36,4.46-28.04-1.81-34.94-7.87-6.99-6.13-10.95-13.74-10.68-15.68l.99.13c-.17,1.27,3.22,8.55,10.35,14.79,6.72,5.89,18.09,12,34.02,7.66,19.33-5.27,32.67-4.77,39.67,1.51,4.72,4.23,6.38,10.97,4.95,20.05-2.87,18.19-25.24,26.44-30.15,26.44Z"/></svg>